{"title":"Family Of Cops Trilogy DVDrip English Klam","uid":6050364,"size":3779896578,"categoryP":"video","categoryS":"movies","magnet":"?xt=urn:btih:9b7ba25236f6954aef9258cabc24ebb1f76935ad&amp;dn=Family+Of+Cops+Trilogy+DVDrip+English+Klam&amp;tr=udp%3A%2F%2Ftracker.openbittorrent.com%3A80&amp;tr=udp%3A%2F%2Fopen.demonii.com%3A1337&amp;tr=udp%3A%2F%2Ftracker.coppersurfer.tk%3A6969&amp;tr=udp%3A%2F%2Fexodus.desync.com%3A6969","seeders":3,"leechers":1,"uploader":"Klambake","files":-1,"time":1292704113,"description":"Family of Cops - When his long-awaited family reunion is marred by a murder involving his free-spirited daughter, a police commander (Charles Bronson) crosses the line and gets involved in a dangerous game with the victim's sultry widow to try to prove his daughter's innocence.\n\nFamily of Cops II - Breach of Faith The family of cops is back, this time dealing with the murder of a priest tied in with the Russian Mafia, who proceed to try to draw the family off the case.\n\nFamily of Cops III (Under Suspicion) - Bronson returns as Paul Fein, a haggard Milwaukee police inspector who deals with family issues while coping with the possibility of promotion to police chief.\n\nGeneral:\n\nComplete name                    : Family Of Cops\\One\\Family Of Cops One.avi\nFormat                           : AVI\nFormat/Info                      : Audio Video Interleave\nFile size                        : 1.18 GiB\nDuration                         : 1h 26mn\nOverall bit rate                 : 1 937 Kbps\n\nVideo:\n\nFormat                           : MPEG-4 Visual\nFormat profile                   : Simple@L3\nFormat settings, BVOP            : No\nFormat settings, QPel            : No\nFormat settings, GMC             : No warppoints\nFormat settings, Matrix          : Default (H.263)\nCodec ID                         : XVID\nCodec ID/Hint                    : XviD\nDuration                         : 1h 26mn\nBit rate                         : 1 478 Kbps\nWidth                            : 720 pixels\nHeight                           : 576 pixels\nDisplay aspect ratio             : 5:4\nFrame rate                       : 25.000 fps\nStandard                         : PAL\nColor space                      : YUV\nChroma subsampling               : 4:2:0\nBit depth                        : 8 bits\nScan type                        : Progressive\nBits/(Pixel*Frame)               : 0.143\nStream size                      : 919 MiB (76%)\nWriting library                  : XviD 1.1.2 (UTC 2006-11-01)\n\nAudio:\n\nFormat                           : AC-3\nFormat/Info                      : Audio Coding 3\nFormat profile                   : Dolby Digital\nMode extension                   : CM (complete main)\nCodec ID                         : 2000\nDuration                         : 1h 26mn\nBit rate mode                    : Constant\nBit rate                         : 448 Kbps\nChannel(s)                       : 2 channels\nChannel positions                : Front: L R\nSampling rate                    : 48.0 KHz\nBit depth                        : 16 bits\nStream size                      : 279 MiB (23%)\nAlignment                        : Aligned on interleaves\nInterleave, duration             : 32 ms (0.80 video frame)\nInterleave, preload duration     : 1536 ms\n","torrent":{"xt":"urn:btih:9b7ba25236f6954aef9258cabc24ebb1f76935ad","amp;dn":"Family+Of+Cops+Trilogy+DVDrip+English+Klam","amp;tr":["udp%3A%2F%2Ftracker.openbittorrent.com%3A80","udp%3A%2F%2Fopen.demonii.com%3A1337","udp%3A%2F%2Ftracker.coppersurfer.tk%3A6969","udp%3A%2F%2Fexodus.desync.com%3A6969"],"infoHash":"9b7ba25236f6954aef9258cabc24ebb1f76935ad","infoHashBuffer":{"type":"Buffer","data":[155,123,162,82,54,246,149,74,239,146,88,202,188,36,235,177,247,105,53,173]},"announce":[],"urlList":[]}}